<svg width="550" height="114" viewBox="0 0 550 114" fill="none" xmlns="http://www.w3.org/2000/svg">
<g clip-path="url(#clip0_1_511)">
<path d="M228.05 101.14V25.21H213.29V112.37H267.35V101.14H228.05Z" fill="#FFEEE7"/>
<path d="M309.1 101.14C303.23 101.14 298 99.13 294.39 95.47C290.85 91.89 289.01 87 289.08 81.35V80.66H335.69C335.44 61.02 324.65 49.33 306.71 49.33C287.48 49.33 274.04 62.4 274.04 81.11C274.04 99.82 288.15 113.64 308.34 113.64C320.84 113.64 328.69 108.59 334.16 104.01L326.03 93.63C322.1 98.42 315.98 101.14 309.09 101.14H309.1ZM291.54 70.96C294.56 64.77 299.85 61.07 305.69 61.07C311.53 61.07 317.21 64.97 319.49 71.01L319.86 71.96H291.06L291.55 70.95L291.54 70.96Z" fill="#FFEEE7"/>
<path d="M377.87 80.98L399.58 50.61H382.14L370.75 70.51L359.23 50.61H341.78L363.51 80.98L341.77 112.37H359.21L370.74 91.13L382.14 112.37H399.59L377.85 80.98H377.87Z" fill="#FFEEE7"/>
<path d="M441.82 63.99V50.49H427.42V33.43H413.66V39.79C413.66 44.06 415.61 46.91 419.81 48.77L420.23 48.95V50.49H406.2V63.99H413.66V96.4C413.66 106.87 419.63 113.38 429.26 113.38C433.9 113.38 438.02 111.86 441.83 108.71V99.49C440.38 100.21 438.44 100.88 435.82 100.88C430.65 100.88 427.42 96.9 427.42 90.46V63.99H441.82Z" fill="#FFEEE7"/>
<path d="M483.87 101.14C478 101.14 472.79 99.13 469.16 95.47C465.62 91.89 463.78 87 463.84 81.35L463.86 80.66H510.46C510.2 61.02 499.42 49.33 481.47 49.33C462.24 49.33 448.81 62.4 448.81 81.11C448.81 99.82 462.92 113.64 483.11 113.64C495.61 113.64 503.47 108.59 508.92 104.01L500.79 93.63C496.86 98.42 490.74 101.14 483.86 101.14H483.87ZM466.32 70.96C469.33 64.77 474.62 61.07 480.47 61.07C486.32 61.07 491.99 64.97 494.26 71.01L494.63 71.96H465.84L466.33 70.95L466.32 70.96Z" fill="#FFEEE7"/>
<path d="M543.02 50.48C537.73 50.76 532.49 55.11 532.28 60.39H531.14V50.47H517.47V112.37H532.22V79.26C532.22 72.08 538.07 64.12 547.21 64.12C548.07 64.12 548.95 64.18 549.81 64.3V50.48C547.39 50.43 545.09 50.37 543.02 50.48Z" fill="#FFEEE7"/>
<path d="M164 13.68L156.7 23.62L146.69 37.18L141.15 44.68L133.17 55.49L128.99 61.15L125.7 65.62L118.76 75.02L113.23 67.52L112.99 67.2L100.53 50.31L99.36 48.73L96.24 44.49L106.47 30.63L118.99 13.68H164Z" fill="#FFEEE7"/>
<path d="M91.44 51.01L67.8 83.04L90.31 113.55H137.59L91.44 51.01Z" fill="#FFEEE7"/>
<path d="M0 99.94L7.38 89.93L17.39 76.37L22.93 68.86L30.91 58.05L35.09 52.39L38.38 47.93L45.32 38.52L50.86 46.03L51.09 46.35L63.55 63.24L64.72 64.82L67.85 69.06L57.61 82.92L45.03 99.96L0 99.94Z" fill="#FFB733"/>
<path d="M72.64 62.54L96.28 30.5L73.77 0H26.49L72.64 62.54Z" fill="#FFB733"/>
</g>
<defs>
<clipPath id="clip0_1_511">
<rect width="549.81" height="113.64" fill="white"/>
</clipPath>
</defs>
</svg>
